<svg xmlns="http://www.w3.org/2000/svg" aria-hidden="true" style="position:absolute;width:0;height:0;overflow:hidden">
  <defs>
    <symbol id="icon-scroll" viewBox="0 0 32 32">
      <path d="M16.947 17.867a1.334 1.334 0 0 1-1.894 0l-6.107-6.12a1.334 1.334 0 1 0-1.894 1.88l6.12 6.12a4 4 0 0 0 5.654 0l6.12-6.12a1.337 1.337 0 0 0-.434-2.172 1.33 1.33 0 0 0-1.46.292l-6.107 6.12z"/>
    </symbol>
    <symbol id="icon-instagram" viewBox="0 0 32 32">
      <path d="M28.717 10.756a9.3 9.3 0 0 0-.596-3.145 6.55 6.55 0 0 0-3.743-3.737 9.4 9.4 0 0 0-3.108-.596c-1.367-.061-1.801-.078-5.273-.078s-3.916 0-5.274.078a9.4 9.4 0 0 0-3.106.596 6.54 6.54 0 0 0-3.743 3.737 9.3 9.3 0 0 0-.596 3.101c-.061 1.367-.08 1.8-.08 5.265s0 3.909.08 5.265a9.3 9.3 0 0 0 .596 3.104 6.55 6.55 0 0 0 3.744 3.735 9.4 9.4 0 0 0 3.106.639c1.369.061 1.803.079 5.274.079s3.917 0 5.274-.079a9.4 9.4 0 0 0 3.108-.595 6.56 6.56 0 0 0 3.743-3.737 9.4 9.4 0 0 0 .596-3.104c.061-1.365.08-1.798.08-5.265-.003-3.466-.003-3.906-.082-5.264zM15.99 22.531c-3.631 0-6.572-2.936-6.572-6.561s2.941-6.561 6.572-6.561c3.628 0 6.572 2.936 6.572 6.561s-2.944 6.561-6.572 6.561m6.833-11.835a1.53 1.53 0 1 1 0-3.06 1.53 1.53 0 1 1 0 3.06"/>
      <path d="M15.992 19.976a4.004 4.004 0 1 0 0-8.009 4.004 4.004 0 0 0 0 8.009"/>
    </symbol>
    <symbol id="icon-facebook" viewBox="0 0 32 32">
      <path d="M19.52 4.64h.96v3.6h-1.2c-.48 0-.96 0-1.2.24s-.24.48-.24 1.04v1.28h2.64v3.04h-2.64v13.2h-4.08V13.76H11.6v-3.04h2.16V9.68c0-1.76.24-3.04.72-3.6.72-1.04 2.16-1.52 4.32-1.52.24.08.48.08.72.08"/>
    </symbol>
    <symbol id="icon-twitter" viewBox="0 0 32 32">
      <path d="M29.333 7.898c-.992.435-2.048.723-3.15.863a5.44 5.44 0 0 0 2.405-3.022 10.9 10.9 0 0 1-3.467 1.323 5.465 5.465 0 0 0-9.456 3.738c0 .433.037.85.127 1.247-4.545-.222-8.567-2.4-11.268-5.718a5.5 5.5 0 0 0-.748 2.763c0 1.893.975 3.572 2.428 4.543a5.4 5.4 0 0 1-2.47-.673v.06a5.49 5.49 0 0 0 4.38 5.372c-.445.122-.93.18-1.433.18-.35 0-.703-.02-1.035-.093.708 2.165 2.718 3.757 5.108 3.808a11 11 0 0 1-6.778 2.332c-.448 0-.878-.02-1.308-.075a15.4 15.4 0 0 0 8.387 2.453c10.06 0 15.56-8.333 15.56-15.557 0-.242-.008-.475-.02-.707a10.9 10.9 0 0 0 2.74-2.838z"/>
    </symbol>

     <symbol id="icon-chocolate" viewBox="0 0 32 32">
      <path fill="#111" d="m13.822 2.413 7.527 7.536.08-.08a.856.856 0 0 1 1.184-.013l.873.873c.305.305.315.77.083 1.094l-.004.007-.143.192 6.16 6.16c.55.55.55 1.43 0 1.98l-9.43 9.43c-.55.55-1.43.55-1.98 0l-4.447-4.447a.85.85 0 0 1-.612.317.84.84 0 0 1-.644-.246l-2.6-2.6a.856.856 0 0 1-.013-1.184l.006-.007.077-.076-7.527-7.527c-.55-.55-.55-1.43 0-1.98l9.43-9.43c.55-.55 1.43-.55 1.98 0zm6.582 8.48-1.756-1.755a.59.59 0 0 0-.85 0l-3.58 3.58a.6.6 0 0 0 0 .86l1.749 1.749.61-.61-1.565-1.565 3.21-3.22 1.569 1.574zm-5.075 5.073-1.754-1.754a.59.59 0 0 0-.85 0l-3.59 3.59c-.24.23-.24.61 0 .85l1.752 1.752.616-.616-1.57-1.564 3.22-3.21 1.564 1.563zM8.822 8.194l3.58 3.58c.24.24.62.24.85-.01l3.58-3.58a.57.57 0 0 0 .18-.42h.01c0-.15-.06-.31-.18-.43l-3.58-3.58a.6.6 0 0 0-.86 0l-3.58 3.59c-.24.23-.24.61 0 .85m-5.07 5.07 3.58 3.58c.24.24.62.24.85 0l3.58-3.58a.58.58 0 0 0 .18-.43h.01c0-.16-.06-.31-.18-.43l-3.58-3.58a.59.59 0 0 0-.85 0l-3.59 3.59c-.24.23-.24.61 0 .85m6.933 8.753 2.362 2.363 9.636-13.04-.655-.655z" style="fill:var(--color1, #111)"/>
      <path fill="#fd9222" d="m13.822 2.413 7.527 7.536.08-.08a.856.856 0 0 1 1.184-.013l.873.873c.305.305.315.77.083 1.094l-.004.007-.143.192 6.16 6.16c.55.55.55 1.43 0 1.98l-9.43 9.43c-.55.55-1.43.55-1.98 0l-4.447-4.447a.85.85 0 0 1-.612.317.84.84 0 0 1-.644-.246l-2.6-2.6a.856.856 0 0 1-.013-1.184l.006-.007.077-.076-7.527-7.527c-.55-.55-.55-1.43 0-1.98l9.43-9.43c.55-.55 1.43-.55 1.98 0zm6.582 8.48-1.756-1.755a.59.59 0 0 0-.85 0l-3.58 3.58a.6.6 0 0 0 0 .86l1.749 1.749.61-.61-1.565-1.565 3.21-3.22 1.569 1.574zm-5.075 5.073-1.754-1.754a.59.59 0 0 0-.85 0l-3.59 3.59c-.24.23-.24.61 0 .85l1.752 1.752.616-.616-1.57-1.564 3.22-3.21 1.564 1.563zM8.822 8.194l3.58 3.58c.24.24.62.24.85-.01l3.58-3.58a.57.57 0 0 0 .18-.42h.01c0-.15-.06-.31-.18-.43l-3.58-3.58a.6.6 0 0 0-.86 0l-3.58 3.59c-.24.23-.24.61 0 .85m-5.07 5.07 3.58 3.58c.24.24.62.24.85 0l3.58-3.58a.58.58 0 0 0 .18-.43h.01c0-.16-.06-.31-.18-.43l-3.58-3.58a.59.59 0 0 0-.85 0l-3.59 3.59c-.24.23-.24.61 0 .85m6.933 8.753 2.362 2.363 9.636-13.04-.655-.655z" style="fill:var(--color2, #fd9222)"/>
    </symbol>
    <symbol id="icon-coin" viewBox="0 0 32 32">
      <path fill="#fd9222" d="M16 2.667c-7.333 0-13.333 6-13.333 13.333s6 13.333 13.333 13.333 13.333-6 13.333-13.333S23.333 2.667 16 2.667m0 24c-5.867 0-10.667-4.8-10.667-10.667S10.133 5.333 16 5.333 26.667 10.133 26.667 16 21.867 26.667 16 26.667" style="fill:var(--color2, #fd9222)"/>
      <path fill="#fd9222" d="M17.733 14.667h-3.467c-.667 0-1.2-.533-1.2-1.2s.533-1.2 1.2-1.2h4.933c.8 0 1.333-.533 1.333-1.333s-.533-1.333-1.333-1.333h-1.867v-1.2c0-.8-.533-1.333-1.333-1.333s-1.333.533-1.333 1.333v1.2h-.4c-2.133 0-3.867 1.733-3.867 3.867s1.733 3.867 3.867 3.867h3.333c.667 0 1.2.533 1.2 1.2s-.533 1.2-1.2 1.2h-4.933c-.8 0-1.333.533-1.333 1.333s.533 1.333 1.333 1.333h2v1.2c0 .8.533 1.333 1.333 1.333s1.333-.533 1.333-1.333v-1.2h.4c2.133 0 3.867-1.733 3.867-3.867s-1.733-3.867-3.867-3.867z" style="fill:var(--color2, #fd9222)"/>
    </symbol>
    <symbol id="icon-spoon" viewBox="0 0 32 32">
      <path fill="#fd9222" d="M15.451 14.106a5.15 5.15 0 0 1-1.177-3.282c0-4.324 5.181-8.642 10.362-8.642a5.183 5.183 0 0 1 5.181 5.182c0 5.182-4.318 10.364-8.646 10.364a5.15 5.15 0 0 1-3.281-1.177L5.132 29.312a1.73 1.73 0 0 1-2.445-2.445z" style="fill:var(--color2, #fd9222)"/>
    </symbol>

   
    <symbol id="icon-arrow" viewBox="0 0 32 32">
      <path fill="none" stroke="#fafafa" stroke-linecap="round" stroke-linejoin="round" stroke-width="1.333" d="M9.143 16h13.714m0 0-3.429-3.429M22.857 16l-3.429 3.429M16 30.857c8.205 0 14.857-6.652 14.857-14.857S24.205 1.143 16 1.143 1.143 7.795 1.143 16 7.795 30.857 16 30.857" style="stroke:var(--color2, #fafafa)"/>
    </symbol>
     <symbol id="icon-arrow-2" viewBox="0 0 32 32">
      <path fill="none" stroke="#fd9222" stroke-linecap="round" stroke-linejoin="round" stroke-width="1.333" d="M9.143 16h13.714m0 0-3.429-3.429M22.857 16l-3.429 3.429M16 30.857c8.205 0 14.857-6.652 14.857-14.857S24.205 1.143 16 1.143 1.143 7.795 1.143 16 7.795 30.857 16 30.857" style="stroke:var(--color1, #fd9222)"/>
    </symbol>
    <symbol id="icon-play" viewBox="0 0 32 32">
      <path fill="#f5f4f4" d="M10.909 24V8.727l14.545 7.636-14.545 7.636z" style="fill:var(--color1, #f5f4f4)"/>
      <path fill="none" stroke="#fff" stroke-width=".727" d="M31.636 16c0 8.636-7.001 15.636-15.636 15.636S.364 24.635.364 16C.364 7.364 7.365.364 16 .364S31.636 7.365 31.636 16z" style="stroke:var(--color2, #fff)"/>
    </symbol>

   <symbol id="icon-user" viewBox="0 0 32 32">
      <path stroke-linecap="round" stroke-linejoin="round" stroke-width="2.667" d="M26.667 28v-2.667A5.33 5.33 0 0 0 21.334 20H10.667a5.33 5.33 0 0 0-5.333 5.333V28M16 14.667A5.333 5.333 0 1 0 16 4a5.333 5.333 0 0 0 0 10.667"/>
    </symbol>
     <symbol id="icon-email" viewBox="0 0 32 32">
      <path stroke-linecap="round" stroke-linejoin="round" stroke-width="2.667" d="M5.333 5.333h21.333c1.467 0 2.667 1.2 2.667 2.667v16c0 1.467-1.2 2.667-2.667 2.667H5.333A2.675 2.675 0 0 1 2.666 24V8c0-1.467 1.2-2.667 2.667-2.667"/>
      <path stroke-linecap="round" stroke-linejoin="round" stroke-width="2.667" d="M29.333 8 16 17.333 2.667 8"/>
    </symbol>
    <symbol id="icon-phone" viewBox="0 0 32 32">
      <path stroke-linecap="round" stroke-linejoin="round" stroke-width="2.667" d="M29.333 22.56v4a2.655 2.655 0 0 1-1.812 2.537 2.7 2.7 0 0 1-1.094.13 26.4 26.4 0 0 1-11.507-4.093 26 26 0 0 1-8-8 26.4 26.4 0 0 1-4.093-11.56 2.66 2.66 0 0 1 .687-2.038 2.66 2.66 0 0 1 1.967-.868h4a2.67 2.67 0 0 1 2.667 2.294 17.2 17.2 0 0 0 .933 3.747 2.68 2.68 0 0 1-.6 2.814l-1.693 1.693a21.33 21.33 0 0 0 8 8l1.693-1.693c.362-.359.82-.606 1.319-.712s1.017-.067 1.495.112c1.21.451 2.467.765 3.747.933a2.665 2.665 0 0 1 2.293 2.707z"/>
    </symbol>
    <symbol id="icon-Checkmark" viewBox="0 0 32 32">
      <path fill="none" d="M9.6 0h12.8A9.6 9.6 0 0 1 32 9.6v12.8a9.6 9.6 0 0 1-9.6 9.6H9.6A9.6 9.6 0 0 1 0 22.4V9.6A9.6 9.6 0 0 1 9.6 0" />
      <path fill="#FAFAFA" d="M14.318 23.607q1.046 0 1.582-.803l7.724-11.64q.192-.285.285-.561.092-.285.092-.544 0-.72-.502-1.188-.493-.477-1.222-.477-.502 0-.854.201-.343.192-.653.669l-6.485 10.184-3.247-3.891a1.67 1.67 0 0 0-1.322-.611q-.745 0-1.23.477c-.485.477-.485.717-.485 1.197q0 .327.1.619.11.285.393.594l4.31 5.08q.594.695 1.515.695z" style="fill:var(--color2, #FAFAFA)"/>
    </symbol>
    <symbol id="icon-x-close" viewBox="0 0 32 32">
      <path stroke-linecap="round" stroke-linejoin="round" stroke-width="2.286" d="M24 8 8 24M8 8l16 16"/>

       <symbol id="icon-menu" viewBox="0 0 32 32">
      <path stroke-linecap="round" stroke-linejoin="round" stroke-width="2.286" d="M4 16h24M4 8h24M4 24h24"/>
    </symbol>

      <symbol id="icon-invalid" viewBox="0 0 32 32">
      <path fill="#e74a3b" d="M14.4 20.8h3.2V24h-3.2zm0-12.8h3.2v9.6h-3.2zm1.584-8C7.152 0 0 7.168 0 16s7.152 16 15.984 16C24.832 32 32 24.832 32 16S24.832 0 15.984 0M16 28.8C8.928 28.8 3.2 23.072 3.2 16S8.928 3.2 16 3.2 28.8 8.928 28.8 16 23.072 28.8 16 28.8" style="fill:var(--color1, #e74a3b)"/>
  </defs>
</svg>
